<svg id="Layer_1" data-name="Layer 1" xmlns="http://www.w3.org/2000/svg" viewBox="0 0 268.23 276"><defs><style>.cls-1{fill:#000;}.cls-2{fill:#000}</style></defs><path class="cls-1" d="M134.11,179.56a23.48,23.48,0,0,0,23.48-23.48V31.14a23.48,23.48,0,0,0-46.95,0V156.08A23.48,23.48,0,0,0,134.11,179.56Z"/><path class="cls-2" d="M234.74,59.81V43.37H250v0H203.06V59.81h16.42V76.48h15.26v16.3H219.48V76.48H203.06v16.3h15.67v14.85H203.06v44.8a68.95,68.95,0,1,1-137.89,0V123h.11V41.35H18.21V152.43a115.9,115.9,0,0,0,231.8,0V59.81Z"/><path class="cls-2" d="M234.73,27.06V43.37H250V27.06ZM218.06,12.22V27.06H234V12.22Z"/></svg>